<?xml version="1.0" standalone="no"?>
<!DOCTYPE svg PUBLIC "-//W3C//DTD SVG 20010904//EN"
 "http://www.w3.org/TR/2001/REC-SVG-20010904/DTD/svg10.dtd">
<svg version="1.0" xmlns="http://www.w3.org/2000/svg"
 width="300.000000pt" height="300.000000pt" viewBox="0 0 300.000000 300.000000"
 preserveAspectRatio="xMidYMid meet">
<metadata>
Created by potrace 1.10, written by Peter Selinger 2001-2011
</metadata>
<g transform="translate(0.000000,300.000000) scale(0.100000,-0.100000)"
fill="#000000" stroke="none">
<path d="M2715 2205 c-37 -19 -74 -72 -86 -122 -5 -21 -9 -271 -9 -555 0 -407
-3 -518 -12 -519 -7 0 -38 -1 -68 -2 -45 -2 -56 -6 -66 -24 -6 -13 -14 -20
-17 -16 -4 3 -7 1 -7 -5 0 -15 -20 -12 -38 5 -11 11 -13 120 -13 597 1 579 1
583 -20 610 -20 25 -25 27 -97 24 -67 -3 -77 -6 -94 -29 -25 -34 -15 -76 23
-98 l29 -16 1 -505 c2 -499 2 -559 0 -571 -1 -7 -51 -22 -57 -17 -1 2 -26 93
-54 202 l-51 198 55 58 56 59 0 230 c0 207 -2 236 -20 285 -29 76 -88 139
-168 178 l-66 33 -242 3 -241 4 -27 -33 -27 -32 3 -238 3 -238 -41 -10 c-22
-6 -52 -20 -66 -31 -15 -11 -29 -20 -32 -20 -3 0 -6 120 -6 266 0 270 -3 293
-39 321 -11 8 -58 12 -139 13 -120 0 -124 -1 -147 -26 -24 -25 -24 -29 -27
-250 l-3 -224 -32 -28 c-18 -15 -44 -52 -58 -82 -14 -30 -24 -47 -21 -38 3 10
1 20 -4 23 -11 7 -50 -52 -50 -75 0 -8 -15 -22 -32 -30 -43 -20 -55 -42 -42
-77 8 -24 16 -28 53 -31 26 -2 52 3 66 12 47 31 38 -28 -11 -77 -27 -28 -28
-28 -36 -8 -4 12 -15 21 -23 21 -9 0 -14 4 -10 9 3 5 0 13 -6 17 -6 3 -14 2
-18 -4 -3 -5 -19 -10 -35 -10 -15 0 -32 -5 -36 -12 -12 -19 -40 -4 -40 22 0
16 12 31 38 47 30 19 39 30 39 52 0 36 -12 37 -34 2 -24 -39 -34 -44 -68 -37
-24 5 -28 4 -18 -7 24 -24 15 -39 -19 -34 l-33 5 28 -12 c15 -7 27 -18 27 -25
0 -7 4 -13 9 -13 6 0 6 -12 0 -32 -5 -18 -5 -34 -1 -36 11 -3 -20 -128 -35
-144 -39 -38 -33 60 7 114 19 26 19 28 3 28 -16 0 -53 74 -111 222 -2 4 47 8
108 8 l112 0 37 40 c20 23 52 48 71 58 19 9 35 24 35 33 0 10 11 26 25 37 23
18 24 28 36 198 19 270 18 320 -7 345 -20 20 -29 20 -272 17 l-252 -3 -58 -29
c-68 -35 -130 -98 -160 -164 -21 -46 -22 -61 -25 -478 -3 -417 -2 -433 18
-487 24 -64 91 -143 144 -172 47 -25 49 -50 4 -41 -99 20 -103 19 -134 -12
-28 -28 -29 -33 -29 -120 0 -52 4 -88 9 -84 5 3 6 -2 3 -12 -5 -12 3 -27 24
-48 28 -29 33 -30 87 -25 31 3 76 2 99 -2 27 -5 54 -4 79 5 27 9 43 10 57 3
11 -6 44 -8 75 -5 69 7 79 7 162 0 86 -7 105 6 102 70 -1 31 3 46 11 46 8 0 9
3 1 8 -6 4 -13 15 -17 24 -3 10 -13 18 -22 18 -8 0 -15 5 -15 11 0 5 -5 7 -10
4 -6 -3 -10 -2 -10 3 0 5 14 15 30 22 48 20 60 2 60 -92 0 -70 3 -82 25 -103
26 -27 54 -32 73 -13 9 9 21 8 51 -2 32 -10 43 -10 55 -1 10 8 21 9 33 4 10
-5 60 -10 112 -11 90 -2 96 -1 122 24 25 24 28 25 51 10 20 -13 74 -15 376
-14 l353 1 19 25 c11 13 20 30 20 37 0 11 21 25 36 25 2 0 4 -10 4 -23 0 -12
7 -33 16 -45 17 -24 30 -25 219 -23 184 1 451 -1 457 -5 15 -9 89 9 110 28 21
18 23 28 23 129 0 98 -2 111 -22 130 l-22 22 27 51 27 51 0 575 0 575 -23 40
c-13 22 -35 49 -49 59 -35 26 -118 32 -158 11z m159 -54 l31 -31 0 -606 0
-606 -37 -34 c-30 -27 -46 -34 -78 -34 -23 0 -54 7 -70 15 -61 32 -60 17 -60
658 l0 584 23 34 c30 45 63 61 116 56 32 -4 52 -13 75 -36z m-2068 -8 c-3 -16
-11 -130 -17 -256 l-13 -227 -30 5 c-17 2 -66 7 -108 10 l-78 7 0 135 0 135
-72 -7 c-126 -11 -122 -2 -131 -271 -4 -126 -6 -286 -3 -356 5 -153 18 -189
77 -212 37 -15 39 -18 28 -39 -6 -12 -18 -30 -27 -40 -8 -9 -13 -20 -9 -23 3
-3 19 12 35 35 16 22 32 37 36 34 3 -3 6 -1 6 5 0 7 8 12 19 12 15 0 20 10 25
50 4 28 16 61 29 77 13 15 32 42 43 58 16 26 25 30 62 30 23 0 42 -3 42 -8 0
-4 -11 -29 -23 -55 -13 -26 -30 -69 -37 -97 -7 -27 -22 -67 -32 -88 -29 -58
-16 -66 15 -10 14 26 27 42 27 34 0 -28 55 58 80 127 19 50 54 39 53 -17 -1
-37 -13 -80 -36 -126 -10 -22 -15 -35 -9 -30 14 13 73 131 71 142 -5 31 3 63
17 63 8 0 12 5 9 10 -3 5 0 10 7 10 8 0 28 13 45 29 28 26 32 27 36 10 8 -30
62 -25 92 7 14 15 25 33 25 40 0 7 4 15 9 19 6 3 8 -10 5 -32 l-4 -38 11 30
c7 17 16 36 22 43 6 8 6 12 -1 12 -7 0 -7 10 0 33 5 17 12 47 14 66 3 19 9 43
15 53 6 11 11 41 11 66 0 26 4 55 10 65 14 27 5 30 -20 7 -12 -11 -26 -20 -32
-20 -6 0 -14 -8 -17 -17 -4 -10 -28 -43 -54 -73 -46 -55 -73 -96 -74 -115 0
-6 -15 -36 -34 -67 -29 -48 -37 -55 -50 -46 -13 10 -14 10 -3 -2 6 -8 12 -20
12 -27 0 -12 -88 -58 -96 -50 -8 8 38 57 54 57 12 0 13 3 4 12 -13 13 -16 29
-4 27 19 -3 23 2 13 15 -7 9 -8 17 -2 20 5 3 19 26 31 51 17 35 27 45 46 45
23 0 24 3 25 63 1 75 7 114 21 141 10 19 10 20 -5 7 -16 -12 -17 4 -17 233 l0
246 135 0 135 0 0 -336 c0 -327 -1 -336 -20 -341 -11 -3 -20 -8 -20 -12 0 -4
-16 -24 -35 -46 -22 -23 -33 -44 -30 -55 3 -9 -2 -31 -11 -49 -9 -18 -13 -35
-10 -39 4 -3 9 3 12 15 3 12 12 24 20 27 8 3 14 16 14 29 0 14 13 35 33 53 46
42 58 60 62 89 6 60 117 144 171 131 21 -6 23 -11 20 -54 -5 -69 -16 -102 -35
-102 -9 0 -31 -18 -49 -40 -18 -22 -29 -40 -23 -40 5 0 13 5 16 10 4 6 10 8
15 5 5 -3 13 3 19 12 5 10 12 15 16 12 10 -11 60 46 64 72 2 13 3 42 2 64 -1
22 -3 165 -4 318 l-2 278 245 -3 c266 -4 273 -5 356 -66 28 -20 52 -51 73 -93
l31 -62 0 -233 0 -232 -57 -48 c-32 -27 -59 -49 -60 -49 -2 -1 119 -464 131
-502 l7 -23 -139 0 -139 0 -31 117 c-17 65 -37 142 -43 171 -7 28 -18 52 -24
52 -22 0 -25 -13 -8 -33 18 -19 17 -20 -5 -8 -16 8 -22 19 -19 31 7 28 -34 72
-73 76 -19 2 -38 10 -42 17 -4 8 -26 19 -50 26 -24 7 -54 18 -68 23 l-25 10
35 14 c19 8 42 22 52 31 10 9 27 21 37 27 10 6 31 20 46 30 22 16 28 17 35 6
7 -11 25 -1 82 42 128 99 122 84 116 251 -3 79 -11 153 -17 165 -14 26 -61 42
-127 42 l-54 0 0 -185 c0 -156 -2 -187 -15 -191 -8 -4 -15 -12 -15 -20 0 -8
-6 -14 -12 -14 -7 0 -35 -21 -62 -45 -60 -55 -74 -57 -41 -7 29 44 43 121 26
148 -10 18 -10 18 -11 -3 0 -14 -17 -34 -49 -57 -42 -31 -52 -46 -80 -119 -23
-61 -36 -84 -49 -83 -55 0 -73 -6 -88 -29 -9 -13 -14 -30 -11 -37 3 -8 9 -1
16 15 6 16 16 25 22 22 6 -4 8 -13 5 -21 -3 -8 -1 -14 4 -14 16 0 11 -19 -10
-40 -15 -15 -33 -20 -70 -20 -45 0 -50 -2 -50 -22 -1 -17 -13 -29 -47 -46 -25
-12 -48 -21 -50 -18 -11 11 64 155 101 193 23 23 52 60 66 82 19 31 31 41 51
41 27 0 39 16 39 48 -1 13 -7 9 -24 -12 -14 -16 -30 -27 -38 -24 -14 6 -52
-19 -59 -39 -2 -6 -32 -41 -67 -77 -41 -43 -65 -78 -69 -99 -3 -17 -10 -38
-16 -45 -5 -7 -7 -30 -4 -53 l5 -40 -30 6 c-28 7 -29 5 -23 -16 10 -33 9 -32
62 -34 53 -3 106 21 82 35 -10 7 -10 12 -1 23 7 7 9 16 6 19 -11 12 59 58 89
58 21 0 40 9 56 25 13 14 26 24 28 21 6 -6 -137 -146 -148 -146 -5 0 -9 -61
-9 -135 l0 -135 -135 0 -135 0 0 189 0 189 23 0 c22 0 22 -3 21 -92 0 -50 -4
-107 -7 -126 l-7 -35 17 40 c9 22 19 42 22 45 13 11 28 89 18 93 -7 2 -4 20 6
48 l17 44 -20 -24 c-16 -19 -20 -20 -20 -6 0 37 -54 61 -67 30 -3 -9 -21 -22
-39 -30 -21 -9 -34 -21 -34 -33 0 -10 -16 -33 -35 -52 l-35 -34 0 -118 0 -118
-233 0 c-263 0 -304 7 -380 65 -31 24 -55 55 -77 98 l-31 63 3 435 3 434 29
53 c36 64 91 110 160 134 43 15 88 17 289 18 l239 0 -6 -27z m1562 -594 l-3
-620 35 3 c34 3 35 2 38 -34 l3 -38 -121 0 -121 0 3 38 c3 35 4 37 36 34 l32
-4 0 576 c0 317 0 579 0 583 0 4 -16 6 -35 4 -35 -3 -35 -2 -35 38 l0 41 85 0
85 0 -2 -621z m-520 337 c10 -10 13 -44 13 -124 -1 -61 -4 -118 -7 -126 -7
-19 -31 -21 -36 -4 -3 7 -11 13 -19 14 -49 3 -47 -2 -48 120 -2 132 5 149 53
140 17 -4 37 -13 44 -20z m-1328 -98 c6 -135 16 -148 114 -155 80 -7 83 -18
24 -73 l-43 -40 -107 0 -108 0 0 180 c0 202 0 202 75 197 l40 -2 5 -107z m412
-174 c-5 -100 -10 -114 -49 -131 -19 -8 -37 -23 -40 -34 -7 -25 -18 -24 -30 4
-11 21 -12 21 -27 -15 -9 -21 -20 -38 -24 -39 -66 -5 -82 -5 -82 0 0 4 11 23
25 44 23 33 31 37 67 37 36 0 40 2 35 21 -4 13 1 26 14 37 10 9 19 25 19 35 0
39 60 112 85 104 6 -2 9 -30 7 -63z m874 -5 c4 -6 19 -9 38 -5 l31 6 -45 -40
c-25 -22 -52 -42 -62 -45 -9 -3 -23 -17 -32 -30 -16 -25 -46 -34 -46 -15 0 5
-7 7 -15 4 -24 -9 -18 6 14 37 16 15 32 41 36 58 6 28 16 34 62 40 6 0 15 -4
19 -10z m-696 -35 c0 -3 -4 -13 -9 -23 -6 -10 -11 -38 -12 -64 -2 -26 -8 -48
-15 -51 -7 -3 -10 -14 -7 -25 3 -12 -2 -28 -13 -38 -17 -17 -18 -17 -11 1 10
24 -11 48 -34 41 -16 -5 -19 -1 -19 29 0 25 4 36 15 36 8 0 15 4 15 8 0 12 70
92 81 92 5 0 9 -3 9 -6z m417 -104 c4 -24 11 -30 31 -30 l25 0 -27 -25 c-14
-13 -26 -27 -26 -30 0 -3 -9 -14 -20 -25 -18 -18 -19 -22 -6 -35 8 -8 19 -15
25 -15 6 0 11 -4 11 -10 0 -5 -7 -10 -15 -10 -8 0 -15 -6 -15 -12 0 -9 -3 -8
-10 2 -8 13 -14 13 -45 -4 -31 -17 -35 -23 -35 -60 0 -37 -30 -112 -50 -126
-4 -3 -10 -18 -14 -35 l-7 -30 26 29 25 29 1 -94 c1 -52 1 -99 0 -106 -1 -6 3
-15 9 -18 24 -15 -27 -36 -69 -29 -27 4 -46 2 -56 -6 -13 -11 -19 -11 -31 2
-12 11 -13 21 -4 42 5 15 10 75 10 134 0 100 2 108 25 130 l24 23 7 -52 c8
-63 24 -45 29 34 3 51 21 107 35 107 14 0 20 44 7 52 -8 4 3 20 32 48 33 31
44 51 48 81 4 26 10 38 18 35 8 -3 11 2 8 15 -4 13 0 19 11 19 10 0 19 -11 23
-30z m-507 -111 c-13 -47 -24 -59 -53 -59 -17 0 -17 2 2 26 12 15 21 31 21 37
0 11 33 46 38 42 2 -2 -2 -23 -8 -46z m-581 -72 c27 -57 29 -67 19 -100 -13
-43 -21 -45 -42 -15 -11 16 -16 46 -16 100 0 43 2 78 4 78 3 0 19 -28 35 -63z
m1145 -13 c29 -11 17 -20 -20 -16 -25 3 -32 7 -23 13 17 10 23 11 43 3z m-63
-34 c28 -12 54 -18 57 -16 2 3 21 -2 41 -11 33 -14 55 -20 103 -27 28 -4 31
-14 9 -28 -20 -12 -21 -21 -21 -155 l0 -143 -135 0 -135 0 0 200 c0 226 -5
214 81 180z m-611 -224 c0 -74 3 -142 6 -151 6 -14 0 -16 -32 -13 l-39 3 3
125 c3 110 6 128 25 148 11 12 24 22 29 22 4 0 8 -60 8 -134z m905 -21 c16
-60 34 -120 41 -132 17 -27 18 -36 2 -27 -6 4 -27 6 -47 6 -67 -3 -66 -5 -63
125 5 205 21 211 67 28z m795 -75 l0 -60 -60 0 -60 0 0 60 0 60 60 0 60 0 0
-60z m-355 -107 c-4 -10 -11 -43 -15 -73 l-7 -55 -2 50 c-1 28 -4 60 -7 73 -5
18 -2 22 16 22 17 0 21 -4 15 -17z m-1897 -9 c20 -14 22 -23 22 -118 0 -66 -4
-106 -12 -114 -7 -7 -33 -12 -59 -12 -67 0 -79 20 -79 131 0 83 1 89 26 108
32 25 71 27 102 5z m992 -89 c0 -98 1 -105 20 -105 19 0 20 7 20 105 l0 105
30 0 30 0 0 -130 0 -130 -55 0 c-46 0 -60 4 -80 25 -23 23 -25 31 -25 130 l0
105 30 0 30 0 0 -105z m188 80 c11 -14 22 -25 25 -25 2 0 2 11 -1 25 -4 22 -1
25 26 25 l31 0 -1 -130 -1 -130 -29 0 -28 0 0 69 c0 54 -4 74 -20 92 l-19 24
6 -92 6 -93 -32 0 -31 0 0 130 0 130 24 0 c14 0 33 -11 44 -25z m242 -1 c0
-25 -2 -26 -40 -21 l-40 5 0 -49 0 -48 38 2 c32 2 37 -1 40 -21 3 -22 1 -23
-40 -21 -42 4 -45 1 -39 -30 0 -5 19 -7 41 -4 38 5 40 4 40 -21 0 -26 -1 -26
-69 -26 l-69 0 -4 53 c-1 29 -2 87 0 130 l4 77 69 0 c68 0 69 0 69 -26z m74
-32 c-5 -50 -4 -60 11 -66 29 -11 37 4 33 63 -3 55 -2 56 25 59 l27 3 0 -74
c0 -62 -3 -76 -17 -82 -17 -6 -17 -7 0 -16 12 -7 17 -22 17 -50 0 -38 -2 -40
-27 -37 -21 2 -27 8 -25 21 2 10 -2 25 -9 33 -17 21 -41 -1 -33 -32 6 -21 3
-24 -25 -24 -29 0 -31 2 -31 40 0 25 6 42 16 48 14 8 14 10 0 21 -12 10 -16
32 -16 82 l0 69 30 0 31 0 -7 -58z m246 38 c15 -15 20 -33 20 -69 0 -48 -2
-51 -45 -82 -37 -26 -45 -38 -43 -59 3 -21 -2 -26 -24 -28 l-28 -3 0 130 0
131 50 0 c37 0 55 -5 70 -20z m97 -90 c-6 -93 -4 -110 8 -110 10 0 15 10 15
30 0 23 4 30 20 30 16 0 20 -7 20 -34 0 -19 3 -41 6 -50 5 -14 -4 -16 -60 -16
l-66 0 0 130 0 130 32 0 31 0 -6 -110z m207 88 c12 -16 16 -47 16 -110 0 -102
-15 -128 -73 -128 -62 0 -72 17 -75 125 -5 116 6 135 74 135 33 0 46 -5 58
-22z m154 6 c18 -12 22 -25 22 -68 0 -28 -5 -57 -11 -63 -8 -8 -7 -24 5 -59 9
-26 16 -49 16 -51 0 -2 -13 -3 -30 -3 -25 0 -30 4 -36 35 -3 19 -10 35 -15 35
-5 0 -9 -16 -9 -35 0 -32 -2 -35 -30 -35 l-30 0 0 130 0 130 48 0 c27 0 57 -7
70 -16z m182 -10 c0 -25 -2 -26 -40 -20 l-40 6 0 -51 0 -51 40 6 c38 5 40 4
40 -20 0 -23 -3 -25 -37 -22 -33 3 -38 0 -41 -19 -3 -19 0 -21 36 -16 33 4 40
2 44 -15 8 -29 2 -32 -69 -32 l-63 0 0 41 c0 22 -5 49 -10 60 -7 13 -7 19 0
19 6 0 10 28 10 70 l0 70 65 0 c64 0 65 -1 65 -26z m157 4 c20 -19 23 -31 23
-105 0 -76 -2 -86 -25 -109 -21 -21 -33 -25 -75 -22 l-51 3 -1 95 c-2 173 -6
160 54 160 39 0 57 -5 75 -22z m-2677 -8 c0 -17 -7 -20 -40 -20 l-40 0 0 -74
c0 -80 10 -98 51 -94 18 2 25 -2 27 -19 3 -21 -1 -23 -40 -23 -24 0 -54 7 -66
16 -20 14 -22 23 -22 125 l0 109 65 0 c58 0 65 -2 65 -20z m334 -2 c10 -16 15
-49 14 -107 0 -107 -12 -121 -98 -121 l-60 0 0 125 0 125 65 0 c56 0 67 -3 79
-22z m176 2 c0 -17 -7 -20 -39 -20 l-39 0 -4 -45 -3 -45 42 0 c38 0 43 -3 43
-23 0 -20 -4 -22 -43 -19 -38 3 -43 1 -43 -18 0 -20 4 -22 43 -17 40 4 43 3
43 -19 0 -23 -3 -24 -70 -24 l-70 0 0 41 c0 22 -5 49 -10 60 -7 13 -7 19 0 19
6 0 10 27 10 65 l0 65 70 0 c63 0 70 -2 70 -20z m187 0 c-1 -14 -8 -20 -25
-20 l-24 0 4 -105 4 -105 -28 0 -28 0 0 105 c0 98 -1 105 -20 105 -13 0 -20 7
-20 20 0 18 7 20 69 20 64 0 70 -2 68 -20z m63 -45 c0 -64 1 -65 26 -65 l27 0
-6 65 -6 65 29 0 30 0 0 -125 0 -125 -31 0 c-30 0 -31 1 -24 40 6 38 6 40 -19
40 -24 0 -26 -4 -26 -40 0 -36 -2 -40 -25 -40 -23 0 -25 4 -25 41 0 22 -5 49
-10 60 -7 13 -7 19 0 19 6 0 10 27 10 65 0 63 1 65 25 65 24 0 25 -2 25 -65z
m260 45 c0 -17 -7 -20 -43 -20 l-44 0 0 -45 0 -45 44 0 c40 0 44 -2 41 -22 -3
-20 -8 -22 -45 -20 -38 3 -43 1 -43 -18 0 -19 5 -21 43 -18 37 2 42 0 45 -20
3 -21 0 -22 -66 -22 l-70 0 -4 53 c-1 29 -2 86 0 125 l4 72 69 0 c62 0 69 -2
69 -20z m27 -74 c-4 -9 -13 -13 -22 -10 -18 7 -20 31 -2 37 17 6 31 -9 24 -27z"/>
<path d="M2762 2088 c-9 -9 -12 -149 -12 -569 0 -307 3 -564 6 -573 7 -19 35
-21 52 -4 9 9 12 150 12 573 0 567 -1 585 -35 585 -6 0 -16 -5 -23 -12z"/>
<path d="M290 684 c0 -76 2 -85 18 -82 14 3 17 16 20 86 3 77 2 82 -18 82 -19
0 -20 -6 -20 -86z"/>
<path d="M2030 725 c0 -25 4 -45 8 -45 18 0 32 26 32 57 0 26 -4 33 -20 33
-17 0 -20 -7 -20 -45z"/>
<path d="M2332 693 c2 -58 7 -88 16 -91 9 -3 12 19 12 87 0 75 -3 91 -15 91
-13 0 -15 -14 -13 -87z"/>
<path d="M2498 733 c-5 -56 -5 -55 15 -47 21 8 27 27 18 60 -12 46 -29 39 -33
-13z"/>
<path d="M2820 690 c0 -73 2 -80 20 -80 18 0 20 7 20 80 0 73 -2 80 -20 80
-18 0 -20 -7 -20 -80z"/>
<path d="M470 685 c0 -77 2 -86 18 -83 14 3 17 15 17 83 0 68 -3 80 -17 83
-16 3 -18 -6 -18 -83z"/>
</g>
</svg>
